<?xml version="1.0" encoding="UTF-8" standalone="no"?>
<!-- Created with Inkscape (http://www.inkscape.org/) -->

<svg
   width="70%"
   height=""
   viewBox="0 0 1000 1000"
   version="1.1"
   id="svg1"
   inkscape:version="1.4.2 (2aeb623e1d, 2025-05-12)"
   sodipodi:docname="Venture Media - Text.svg"
   xmlns:inkscape="http://www.inkscape.org/namespaces/inkscape"
   xmlns:sodipodi="http://sodipodi.sourceforge.net/DTD/sodipodi-0.dtd"
   xmlns="http://www.w3.org/2000/svg"
   xmlns:svg="http://www.w3.org/2000/svg">
  <sodipodi:namedview
     id="namedview1"
     pagecolor="#ffffff"
     bordercolor="#000000"
     borderopacity="0.25"
     inkscape:showpageshadow="2"
     inkscape:pageopacity="0.0"
     inkscape:pagecheckerboard="false"
     inkscape:deskcolor="#d1d1d1"
     inkscape:document-units="mm"
     inkscape:zoom="0.19124765"
     inkscape:cx="1121.5824"
     inkscape:cy="1539.8882"
     inkscape:window-width="1920"
     inkscape:window-height="1011"
     inkscape:window-x="0"
     inkscape:window-y="0"
     inkscape:window-maximized="1"
     inkscape:current-layer="layer1"
     inkscape:lockguides="true"
     showguides="false" />
  <defs
     id="defs1">
    <rect
       x="1274.8916"
       y="1062.4097"
       width="1526.5149"
       height="1576.8396"
       id="rect1" />
  </defs>
  <g
     inkscape:label="Layer 1"
     inkscape:groupmode="layer"
     id="layer1">
    <text
       xml:space="preserve"
       style="stroke-dasharray:none;stroke-width:0;stroke:none;fill-rule:nonzero;fill-opacity:1;fill:#221f21;display:inline;white-space:pre;text-anchor:start;direction:ltr;writing-mode:lr-tb;text-align:start;font-variant-east-asian:normal;font-variant-numeric:normal;font-variant-caps:normal;font-variant-ligatures:normal;-inkscape-font-specification:'Melting Stories, Normal';font-family:'Melting Stories';font-size:30mm;font-stretch:normal;font-weight:normal;font-variant:normal;font-style:normal;"
       x="113.86588"
       y="187.89041"
       id="text2"
       transform="matrix(0.69323397,0,0,0.69323397,38.595986,107.92606)"><tspan
         id="tspan1"
         style="font-style:normal;font-variant:normal;font-weight:normal;font-stretch:normal;font-size:120.278px;font-family:'Melting Stories';-inkscape-font-specification:'Melting Stories, Normal';font-variant-ligatures:normal;font-variant-caps:normal;font-variant-numeric:normal;font-variant-east-asian:normal;fill:#221f21;fill-opacity:1;stroke-width:0"
         x="113.86588"
         y="187.89041">teach</tspan></text>
    <text
       xml:space="preserve"
       style="stroke-dasharray:none;stroke-width:0;stroke:none;fill-rule:nonzero;fill-opacity:1;fill:#221f21;display:inline;white-space:pre;text-anchor:start;direction:ltr;writing-mode:lr-tb;text-align:start;font-variant-east-asian:normal;font-variant-numeric:normal;font-variant-caps:normal;font-variant-ligatures:normal;-inkscape-font-specification:'Melting Stories, Normal';font-family:'Melting Stories';font-size:30mm;font-stretch:normal;font-weight:normal;font-variant:normal;font-style:normal;"
       x="113.86588"
       y="187.89041"
       id="text3"
       transform="matrix(0.69323397,0,0,0.69323397,286.41518,7.6750129)">learn</text>
    <text
       xml:space="preserve"
       style="stroke-dasharray:none;stroke-width:0;stroke:none;fill-rule:nonzero;fill-opacity:1;fill:#221f21;display:inline;white-space:pre;text-anchor:start;direction:ltr;writing-mode:lr-tb;text-align:start;font-variant-east-asian:normal;font-variant-numeric:normal;font-variant-caps:normal;font-variant-ligatures:normal;-inkscape-font-specification:'Melting Stories, Normal';font-family:'Melting Stories';font-size:30mm;font-stretch:normal;font-weight:normal;font-variant:normal;font-style:normal;"
       x="113.86588"
       y="187.89041"
       id="text4"
       transform="matrix(0.69323397,0,0,0.69323397,595.06012,35.48258)">connect</text>
    <text
       xml:space="preserve"
       style="stroke-dasharray:none;stroke-width:0;stroke:none;fill-rule:nonzero;fill-opacity:1;fill:#221f21;display:inline;white-space:pre;text-anchor:start;direction:ltr;writing-mode:lr-tb;text-align:start;font-variant-east-asian:normal;font-variant-numeric:normal;font-variant-caps:normal;font-variant-ligatures:normal;-inkscape-font-specification:'Melting Stories, Normal';font-family:'Melting Stories';font-size:30mm;font-stretch:normal;font-weight:normal;font-variant:normal;font-style:normal;"
       x="113.86588"
       y="187.89041"
       id="text5"
       transform="matrix(0.69323397,0,0,0.69323397,698.00554,205.63975)">create</text>
    <text
       xml:space="preserve"
       style="stroke-dasharray:none;stroke-width:0;stroke:none;fill-rule:nonzero;fill-opacity:1;fill:#221f21;display:inline;white-space:pre;text-anchor:start;direction:ltr;writing-mode:lr-tb;text-align:start;font-variant-east-asian:normal;font-variant-numeric:normal;font-variant-caps:normal;font-variant-ligatures:normal;-inkscape-font-specification:'Melting Stories, Normal';font-family:'Melting Stories';font-size:30mm;font-stretch:normal;font-weight:normal;font-variant:normal;font-style:normal;"
       x="113.86588"
       y="187.89041"
       id="text6"
       transform="matrix(0.69323397,0,0,0.69323397,707.17078,375.79692)">contribute</text>
    <text
       xml:space="preserve"
       style="stroke-dasharray:none;stroke-width:0;stroke:none;fill-rule:nonzero;fill-opacity:1;fill:#221f21;display:inline;white-space:pre;text-anchor:start;direction:ltr;writing-mode:lr-tb;text-align:start;font-variant-east-asian:normal;font-variant-numeric:normal;font-variant-caps:normal;font-variant-ligatures:normal;-inkscape-font-specification:'Melting Stories, Normal';font-family:'Melting Stories';font-size:30mm;font-stretch:normal;font-weight:normal;font-variant:normal;font-style:normal;"
       x="113.86588"
       y="187.89041"
       id="text7"
       transform="matrix(0.69323397,0,0,0.69323397,693.9471,612.84713)">beauty</text>
    <text
       xml:space="preserve"
       style="stroke-dasharray:none;stroke-width:0;stroke:none;fill-rule:nonzero;fill-opacity:1;fill:#221f21;display:inline;white-space:pre;text-anchor:start;direction:ltr;writing-mode:lr-tb;text-align:start;font-variant-east-asian:normal;font-variant-numeric:normal;font-variant-caps:normal;font-variant-ligatures:normal;-inkscape-font-specification:'Melting Stories, Normal';font-family:'Melting Stories';font-size:30mm;font-stretch:normal;font-weight:normal;font-variant:normal;font-style:normal;"
       x="113.86588"
       y="187.89041"
       id="text8"
       transform="matrix(0.69323397,0,0,0.69323397,372.15886,763.34833)">change</text>
    <text
       xml:space="preserve"
       style="stroke-dasharray:none;stroke-width:0;stroke:none;fill-rule:nonzero;fill-opacity:1;fill:#221f21;display:inline;white-space:pre;text-anchor:start;direction:ltr;writing-mode:lr-tb;text-align:start;font-variant-east-asian:normal;font-variant-numeric:normal;font-variant-caps:normal;font-variant-ligatures:normal;-inkscape-font-specification:'Melting Stories, Normal';font-family:'Melting Stories';font-size:30mm;font-stretch:normal;font-weight:normal;font-variant:normal;font-style:normal;"
       x="113.86588"
       y="187.89041"
       id="text9"
       transform="matrix(0.69323397,0,0,0.69323397,77.953187,635.52167)">stories</text>
    <text
       xml:space="preserve"
       style="stroke-dasharray:none;stroke-width:0;stroke:none;fill-rule:nonzero;fill-opacity:1;fill:#221f21;display:inline;white-space:pre;text-anchor:start;direction:ltr;writing-mode:lr-tb;text-align:start;font-variant-east-asian:normal;font-variant-numeric:normal;font-variant-caps:normal;font-variant-ligatures:normal;-inkscape-font-specification:'Melting Stories, Normal';font-family:'Melting Stories';font-size:30mm;font-stretch:normal;font-weight:normal;font-variant:normal;font-style:normal;"
       x="113.86588"
       y="187.89041"
       id="text10"
       transform="matrix(0.69323397,0,0,0.69323397,-31.65207,407.66675)">growth</text>
    
    <g>
    <path
       style="fill:#221f21;fill-opacity:1;fill-rule:nonzero;stroke:none;stroke-width:0;stroke-dasharray:none"
       d="M 332.87671,335.06511 C 213.0411,256.77428 228.30366,244.10959 228.30366,244.10959"
       id="path10" />
    <path
       style="fill:#221f21;fill-opacity:1;fill-rule:nonzero;stroke:none;stroke-width:0;stroke-dasharray:none"
       d="m 224.12128,290.31702 c -3.03183,-46.74837 3.55335,-46.20715 3.55335,-46.20715"
       id="path13"
       inkscape:transform-center-x="-0.796173"
       inkscape:transform-center-y="0.64157155" />
    <path
       style="fill:#221f21;fill-opacity:1;fill-rule:nonzero;stroke:none;stroke-width:0;stroke-dasharray:none"
       d="m 273.22699,252.16848 c -44.37077,-15.0279 -45.55236,-8.52703 -45.55236,-8.52703"
       id="path16"
       inkscape:transform-center-x="-0.31051923"
       inkscape:transform-center-y="0.62112358" />
       </g>
    <g
       id="g20"
       transform="rotate(30,510.73742,547.31088)">
      <path
         style="fill:#221f21;fill-opacity:1;fill-rule:nonzero;stroke:none;stroke-width:0;stroke-dasharray:none"
         d="M 332.87671,335.06511 C 213.0411,256.77428 228.30366,244.10959 228.30366,244.10959"
         id="path17" />
      <path
         style="fill:#221f21;fill-opacity:1;fill-rule:nonzero;stroke:none;stroke-width:0;stroke-dasharray:none"
         d="m 223.70789,289.84888 c -3.03183,-46.74837 3.55335,-46.20715 3.55335,-46.20715"
         id="path18"
         inkscape:transform-center-x="-0.796173"
         inkscape:transform-center-y="0.64157155" />
      <path
         style="fill:none;fill-opacity:1;fill-rule:nonzero;stroke-width:2;stroke-dasharray:none;stroke-opacity:1"
         id="path19"
         d="m 225.60487,243.97691 c -0.85074,3.01237 -1.83965,5.98256 -2.76654,8.97188 -1.17691,3.61626 -2.08741,7.30849 -2.8313,11.03587 -0.42857,2.05988 -1.0583,4.06902 -1.59767,6.10071 -0.30435,1.20827 -0.5669,2.42353 -0.7173,3.66069 -0.13574,1.24167 -0.69027,2.37588 -1.14148,3.52507 -0.50275,1.56628 -0.78516,3.18707 -1.23783,4.76986 -0.42612,1.22544 -0.76129,2.47274 -0.95402,3.75568 -0.0933,0.6623 -0.0999,1.33196 -0.11354,1.99932 0,0 3.50022,1.79136 3.50022,1.79136 v 0 c 0.01,-0.65309 0.021,-1.30722 0.0926,-1.95717 0.16118,-1.27423 0.47312,-2.51378 0.89335,-3.72801 0.43134,-1.57236 0.75412,-3.17121 1.23088,-4.72908 0.46119,-1.18007 1.05883,-2.33005 1.20884,-3.60439 0.13012,-1.22674 0.38596,-2.42771 0.66539,-3.62842 0.49853,-2.05756 1.12501,-4.08408 1.53085,-6.16397 0.66111,-3.7378 1.54773,-7.43075 2.72748,-11.04103 0.95066,-2.96848 1.96743,-5.91629 2.9664,-8.86844 z" />
      <path
         style="fill:#221f21;fill-opacity:1;fill-rule:nonzero;stroke:none;stroke-width:0;stroke-dasharray:none"
         d="m 273.22699,252.16848 c -44.37077,-15.0279 -45.55236,-8.52703 -45.55236,-8.52703"
         id="path20"
         inkscape:transform-center-x="-0.31051923"
         inkscape:transform-center-y="0.62112358" />
    </g>
    <g
       id="g24"
       transform="rotate(90,485.88423,421.36542)">
      <path
         style="fill:#221f21;fill-opacity:1;fill-rule:nonzero;stroke:none;stroke-width:0;stroke-dasharray:none"
         d="M 332.87671,335.06511 C 213.0411,256.77428 228.30366,244.10959 228.30366,244.10959"
         id="path21" />
      <path
         style="fill:#221f21;fill-opacity:1;fill-rule:nonzero;stroke:none;stroke-width:0;stroke-dasharray:none"
         d="m 223.70789,289.84888 c -3.03183,-46.74837 3.55335,-46.20715 3.55335,-46.20715"
         id="path22"
         inkscape:transform-center-x="-0.796173"
         inkscape:transform-center-y="0.64157155" />
      <path
         style="fill:none;fill-opacity:1;fill-rule:nonzero;stroke-width:2;stroke-dasharray:none;stroke-opacity:1"
         id="path23"
         d="m 225.60487,243.97691 c -0.85074,3.01237 -1.83965,5.98256 -2.76654,8.97188 -1.17691,3.61626 -2.08741,7.30849 -2.8313,11.03587 -0.42857,2.05988 -1.0583,4.06902 -1.59767,6.10071 -0.30435,1.20827 -0.5669,2.42353 -0.7173,3.66069 -0.13574,1.24167 -0.69027,2.37588 -1.14148,3.52507 -0.50275,1.56628 -0.78516,3.18707 -1.23783,4.76986 -0.42612,1.22544 -0.76129,2.47274 -0.95402,3.75568 -0.0933,0.6623 -0.0999,1.33196 -0.11354,1.99932 0,0 3.50022,1.79136 3.50022,1.79136 v 0 c 0.01,-0.65309 0.021,-1.30722 0.0926,-1.95717 0.16118,-1.27423 0.47312,-2.51378 0.89335,-3.72801 0.43134,-1.57236 0.75412,-3.17121 1.23088,-4.72908 0.46119,-1.18007 1.05883,-2.33005 1.20884,-3.60439 0.13012,-1.22674 0.38596,-2.42771 0.66539,-3.62842 0.49853,-2.05756 1.12501,-4.08408 1.53085,-6.16397 0.66111,-3.7378 1.54773,-7.43075 2.72748,-11.04103 0.95066,-2.96848 1.96743,-5.91629 2.9664,-8.86844 z" />
      <path
         style="fill:#221f21;fill-opacity:1;fill-rule:nonzero;stroke:none;stroke-width:0;stroke-dasharray:none"
         d="m 273.22699,252.16848 c -44.37077,-15.0279 -45.55236,-8.52703 -45.55236,-8.52703"
         id="path24"
         inkscape:transform-center-x="-0.31051923"
         inkscape:transform-center-y="0.62112358" />
    </g>
    <g
       id="g28"
       transform="rotate(135,479.34431,389.59062)">
      <path
         style="fill:#221f21;fill-opacity:1;fill-rule:nonzero;stroke:none;stroke-width:0;stroke-dasharray:none"
         d="M 332.87671,335.06511 C 213.0411,256.77428 228.30366,244.10959 228.30366,244.10959"
         id="path25" />
      <path
         style="fill:#221f21;fill-opacity:1;fill-rule:nonzero;stroke:none;stroke-width:0;stroke-dasharray:none"
         d="m 223.70789,289.84888 c -3.03183,-46.74837 3.55335,-46.20715 3.55335,-46.20715"
         id="path26"
         inkscape:transform-center-x="-0.796173"
         inkscape:transform-center-y="0.64157155" />
      <path
         style="fill:none;fill-opacity:1;fill-rule:nonzero;stroke-width:2;stroke-dasharray:none;stroke-opacity:1"
         id="path27"
         d="m 225.60487,243.97691 c -0.85074,3.01237 -1.83965,5.98256 -2.76654,8.97188 -1.17691,3.61626 -2.08741,7.30849 -2.8313,11.03587 -0.42857,2.05988 -1.0583,4.06902 -1.59767,6.10071 -0.30435,1.20827 -0.5669,2.42353 -0.7173,3.66069 -0.13574,1.24167 -0.69027,2.37588 -1.14148,3.52507 -0.50275,1.56628 -0.78516,3.18707 -1.23783,4.76986 -0.42612,1.22544 -0.76129,2.47274 -0.95402,3.75568 -0.0933,0.6623 -0.0999,1.33196 -0.11354,1.99932 0,0 3.50022,1.79136 3.50022,1.79136 v 0 c 0.01,-0.65309 0.021,-1.30722 0.0926,-1.95717 0.16118,-1.27423 0.47312,-2.51378 0.89335,-3.72801 0.43134,-1.57236 0.75412,-3.17121 1.23088,-4.72908 0.46119,-1.18007 1.05883,-2.33005 1.20884,-3.60439 0.13012,-1.22674 0.38596,-2.42771 0.66539,-3.62842 0.49853,-2.05756 1.12501,-4.08408 1.53085,-6.16397 0.66111,-3.7378 1.54773,-7.43075 2.72748,-11.04103 0.95066,-2.96848 1.96743,-5.91629 2.9664,-8.86844 z" />
      <path
         style="fill:#221f21;fill-opacity:1;fill-rule:nonzero;stroke:none;stroke-width:0;stroke-dasharray:none"
         d="m 273.22699,252.16848 c -44.37077,-15.0279 -45.55236,-8.52703 -45.55236,-8.52703"
         id="path28"
         inkscape:transform-center-x="-0.31051923"
         inkscape:transform-center-y="0.62112358" />
    </g>
    <g
       id="g32"
       transform="rotate(135,450.61989,472.81559)">
      <path
         style="fill:#221f21;fill-opacity:1;fill-rule:nonzero;stroke:none;stroke-width:0;stroke-dasharray:none"
         d="M 332.87671,335.06511 C 213.0411,256.77428 228.30366,244.10959 228.30366,244.10959"
         id="path29" />
      <path
         style="fill:#221f21;fill-opacity:1;fill-rule:nonzero;stroke:none;stroke-width:0;stroke-dasharray:none"
         d="m 223.70789,289.84888 c -3.03183,-46.74837 3.55335,-46.20715 3.55335,-46.20715"
         id="path30"
         inkscape:transform-center-x="-0.796173"
         inkscape:transform-center-y="0.64157155" />
      <path
         style="fill:none;fill-opacity:1;fill-rule:nonzero;stroke-width:2;stroke-dasharray:none;stroke-opacity:1"
         id="path31"
         d="m 225.60487,243.97691 c -0.85074,3.01237 -1.83965,5.98256 -2.76654,8.97188 -1.17691,3.61626 -2.08741,7.30849 -2.8313,11.03587 -0.42857,2.05988 -1.0583,4.06902 -1.59767,6.10071 -0.30435,1.20827 -0.5669,2.42353 -0.7173,3.66069 -0.13574,1.24167 -0.69027,2.37588 -1.14148,3.52507 -0.50275,1.56628 -0.78516,3.18707 -1.23783,4.76986 -0.42612,1.22544 -0.76129,2.47274 -0.95402,3.75568 -0.0933,0.6623 -0.0999,1.33196 -0.11354,1.99932 0,0 3.50022,1.79136 3.50022,1.79136 v 0 c 0.01,-0.65309 0.021,-1.30722 0.0926,-1.95717 0.16118,-1.27423 0.47312,-2.51378 0.89335,-3.72801 0.43134,-1.57236 0.75412,-3.17121 1.23088,-4.72908 0.46119,-1.18007 1.05883,-2.33005 1.20884,-3.60439 0.13012,-1.22674 0.38596,-2.42771 0.66539,-3.62842 0.49853,-2.05756 1.12501,-4.08408 1.53085,-6.16397 0.66111,-3.7378 1.54773,-7.43075 2.72748,-11.04103 0.95066,-2.96848 1.96743,-5.91629 2.9664,-8.86844 z" />
      <path
         style="fill:#221f21;fill-opacity:1;fill-rule:nonzero;stroke:none;stroke-width:0;stroke-dasharray:none"
         d="m 273.22699,252.16848 c -44.37077,-15.0279 -45.55236,-8.52703 -45.55236,-8.52703"
         id="path32"
         inkscape:transform-center-x="-0.31051923"
         inkscape:transform-center-y="0.62112358" />
    </g>
    <g
       id="g36"
       transform="rotate(165,459.77648,506.68104)">
      <path
         style="fill:#221f21;fill-opacity:1;fill-rule:nonzero;stroke:none;stroke-width:0;stroke-dasharray:none"
         d="M 332.87671,335.06511 C 213.0411,256.77428 228.30366,244.10959 228.30366,244.10959"
         id="path33" />
      <path
         style="fill:#221f21;fill-opacity:1;fill-rule:nonzero;stroke:none;stroke-width:0;stroke-dasharray:none"
         d="m 223.70789,289.84888 c -3.03183,-46.74837 3.55335,-46.20715 3.55335,-46.20715"
         id="path34"
         inkscape:transform-center-x="-0.796173"
         inkscape:transform-center-y="0.64157155" />
      <path
         style="fill:none;fill-opacity:1;fill-rule:nonzero;stroke-width:2;stroke-dasharray:none;stroke-opacity:1"
         id="path35"
         d="m 225.60487,243.97691 c -0.85074,3.01237 -1.83965,5.98256 -2.76654,8.97188 -1.17691,3.61626 -2.08741,7.30849 -2.8313,11.03587 -0.42857,2.05988 -1.0583,4.06902 -1.59767,6.10071 -0.30435,1.20827 -0.5669,2.42353 -0.7173,3.66069 -0.13574,1.24167 -0.69027,2.37588 -1.14148,3.52507 -0.50275,1.56628 -0.78516,3.18707 -1.23783,4.76986 -0.42612,1.22544 -0.76129,2.47274 -0.95402,3.75568 -0.0933,0.6623 -0.0999,1.33196 -0.11354,1.99932 0,0 3.50022,1.79136 3.50022,1.79136 v 0 c 0.01,-0.65309 0.021,-1.30722 0.0926,-1.95717 0.16118,-1.27423 0.47312,-2.51378 0.89335,-3.72801 0.43134,-1.57236 0.75412,-3.17121 1.23088,-4.72908 0.46119,-1.18007 1.05883,-2.33005 1.20884,-3.60439 0.13012,-1.22674 0.38596,-2.42771 0.66539,-3.62842 0.49853,-2.05756 1.12501,-4.08408 1.53085,-6.16397 0.66111,-3.7378 1.54773,-7.43075 2.72748,-11.04103 0.95066,-2.96848 1.96743,-5.91629 2.9664,-8.86844 z" />
      <path
         style="fill:#221f21;fill-opacity:1;fill-rule:nonzero;stroke:none;stroke-width:0;stroke-dasharray:none"
         d="m 273.22699,252.16848 c -44.37077,-15.0279 -45.55236,-8.52703 -45.55236,-8.52703"
         id="path36"
         inkscape:transform-center-x="-0.31051923"
         inkscape:transform-center-y="0.62112358" />
    </g>
    <g
       id="g40"
       transform="rotate(-120,540.52146,451.39726)">
      <path
         style="fill:#221f21;fill-opacity:1;fill-rule:nonzero;stroke:none;stroke-width:0;stroke-dasharray:none"
         d="M 332.87671,335.06511 C 213.0411,256.77428 228.30366,244.10959 228.30366,244.10959"
         id="path37" />
      <path
         style="fill:#221f21;fill-opacity:1;fill-rule:nonzero;stroke:none;stroke-width:0;stroke-dasharray:none"
         d="m 223.70789,289.84888 c -3.03183,-46.74837 3.55335,-46.20715 3.55335,-46.20715"
         id="path38"
         inkscape:transform-center-x="-0.796173"
         inkscape:transform-center-y="0.64157155" />
      <path
         style="fill:none;fill-opacity:1;fill-rule:nonzero;stroke-width:2;stroke-dasharray:none;stroke-opacity:1"
         id="path39"
         d="m 225.60487,243.97691 c -0.85074,3.01237 -1.83965,5.98256 -2.76654,8.97188 -1.17691,3.61626 -2.08741,7.30849 -2.8313,11.03587 -0.42857,2.05988 -1.0583,4.06902 -1.59767,6.10071 -0.30435,1.20827 -0.5669,2.42353 -0.7173,3.66069 -0.13574,1.24167 -0.69027,2.37588 -1.14148,3.52507 -0.50275,1.56628 -0.78516,3.18707 -1.23783,4.76986 -0.42612,1.22544 -0.76129,2.47274 -0.95402,3.75568 -0.0933,0.6623 -0.0999,1.33196 -0.11354,1.99932 0,0 3.50022,1.79136 3.50022,1.79136 v 0 c 0.01,-0.65309 0.021,-1.30722 0.0926,-1.95717 0.16118,-1.27423 0.47312,-2.51378 0.89335,-3.72801 0.43134,-1.57236 0.75412,-3.17121 1.23088,-4.72908 0.46119,-1.18007 1.05883,-2.33005 1.20884,-3.60439 0.13012,-1.22674 0.38596,-2.42771 0.66539,-3.62842 0.49853,-2.05756 1.12501,-4.08408 1.53085,-6.16397 0.66111,-3.7378 1.54773,-7.43075 2.72748,-11.04103 0.95066,-2.96848 1.96743,-5.91629 2.9664,-8.86844 z" />
      <path
         style="fill:#221f21;fill-opacity:1;fill-rule:nonzero;stroke:none;stroke-width:0;stroke-dasharray:none"
         d="m 273.22699,252.16848 c -44.37077,-15.0279 -45.55236,-8.52703 -45.55236,-8.52703"
         id="path40"
         inkscape:transform-center-x="-0.31051923"
         inkscape:transform-center-y="0.62112358" />
    </g>
    <g
       id="g44"
       transform="rotate(-75,579.1981,436.34951)">
      <path
         style="fill:#221f21;fill-opacity:1;fill-rule:nonzero;stroke:none;stroke-width:0;stroke-dasharray:none"
         d="M 332.87671,335.06511 C 213.0411,256.77428 228.30366,244.10959 228.30366,244.10959"
         id="path41" />
      <path
         style="fill:#221f21;fill-opacity:1;fill-rule:nonzero;stroke:none;stroke-width:0;stroke-dasharray:none"
         d="m 223.70789,289.84888 c -3.03183,-46.74837 3.55335,-46.20715 3.55335,-46.20715"
         id="path42"
         inkscape:transform-center-x="-0.796173"
         inkscape:transform-center-y="0.64157155" />
      <path
         style="fill:none;fill-opacity:1;fill-rule:nonzero;stroke-width:2;stroke-dasharray:none;stroke-opacity:1"
         id="path43"
         d="m 225.60487,243.97691 c -0.85074,3.01237 -1.83965,5.98256 -2.76654,8.97188 -1.17691,3.61626 -2.08741,7.30849 -2.8313,11.03587 -0.42857,2.05988 -1.0583,4.06902 -1.59767,6.10071 -0.30435,1.20827 -0.5669,2.42353 -0.7173,3.66069 -0.13574,1.24167 -0.69027,2.37588 -1.14148,3.52507 -0.50275,1.56628 -0.78516,3.18707 -1.23783,4.76986 -0.42612,1.22544 -0.76129,2.47274 -0.95402,3.75568 -0.0933,0.6623 -0.0999,1.33196 -0.11354,1.99932 0,0 3.50022,1.79136 3.50022,1.79136 v 0 c 0.01,-0.65309 0.021,-1.30722 0.0926,-1.95717 0.16118,-1.27423 0.47312,-2.51378 0.89335,-3.72801 0.43134,-1.57236 0.75412,-3.17121 1.23088,-4.72908 0.46119,-1.18007 1.05883,-2.33005 1.20884,-3.60439 0.13012,-1.22674 0.38596,-2.42771 0.66539,-3.62842 0.49853,-2.05756 1.12501,-4.08408 1.53085,-6.16397 0.66111,-3.7378 1.54773,-7.43075 2.72748,-11.04103 0.95066,-2.96848 1.96743,-5.91629 2.9664,-8.86844 z" />
      <path
         style="fill:#221f21;fill-opacity:1;fill-rule:nonzero;stroke:none;stroke-width:0;stroke-dasharray:none"
         d="m 273.22699,252.16848 c -44.37077,-15.0279 -45.55236,-8.52703 -45.55236,-8.52703"
         id="path44"
         inkscape:transform-center-x="-0.31051923"
         inkscape:transform-center-y="0.62112358" />
    </g>
    <g
       id="g48"
       transform="rotate(-45,534.97644,396.44075)">
      <path
         style="fill:#221f21;fill-opacity:1;fill-rule:nonzero;stroke:none;stroke-width:0;stroke-dasharray:none"
         d="M 332.87671,335.06511 C 213.0411,256.77428 228.30366,244.10959 228.30366,244.10959"
         id="path45" />
      <path
         style="fill:#221f21;fill-opacity:1;fill-rule:nonzero;stroke:none;stroke-width:0;stroke-dasharray:none"
         d="m 223.70789,289.84888 c -3.03183,-46.74837 3.55335,-46.20715 3.55335,-46.20715"
         id="path46"
         inkscape:transform-center-x="-0.796173"
         inkscape:transform-center-y="0.64157155" />
      <path
         style="fill:none;fill-opacity:1;fill-rule:nonzero;stroke-width:2;stroke-dasharray:none;stroke-opacity:1"
         id="path47"
         d="m 225.60487,243.97691 c -0.85074,3.01237 -1.83965,5.98256 -2.76654,8.97188 -1.17691,3.61626 -2.08741,7.30849 -2.8313,11.03587 -0.42857,2.05988 -1.0583,4.06902 -1.59767,6.10071 -0.30435,1.20827 -0.5669,2.42353 -0.7173,3.66069 -0.13574,1.24167 -0.69027,2.37588 -1.14148,3.52507 -0.50275,1.56628 -0.78516,3.18707 -1.23783,4.76986 -0.42612,1.22544 -0.76129,2.47274 -0.95402,3.75568 -0.0933,0.6623 -0.0999,1.33196 -0.11354,1.99932 0,0 3.50022,1.79136 3.50022,1.79136 v 0 c 0.01,-0.65309 0.021,-1.30722 0.0926,-1.95717 0.16118,-1.27423 0.47312,-2.51378 0.89335,-3.72801 0.43134,-1.57236 0.75412,-3.17121 1.23088,-4.72908 0.46119,-1.18007 1.05883,-2.33005 1.20884,-3.60439 0.13012,-1.22674 0.38596,-2.42771 0.66539,-3.62842 0.49853,-2.05756 1.12501,-4.08408 1.53085,-6.16397 0.66111,-3.7378 1.54773,-7.43075 2.72748,-11.04103 0.95066,-2.96848 1.96743,-5.91629 2.9664,-8.86844 z" />
      <path
         style="fill:#221f21;fill-opacity:1;fill-rule:nonzero;stroke:none;stroke-width:0;stroke-dasharray:none"
         d="m 273.22699,252.16848 c -44.37077,-15.0279 -45.55236,-8.52703 -45.55236,-8.52703"
         id="path48"
         inkscape:transform-center-x="-0.31051923"
         inkscape:transform-center-y="0.62112358" />
    </g>
    <text
       xml:space="preserve"
       style="font-style:normal;font-variant:normal;font-weight:400;font-stretch:normal;font-size:113.386px;line-height:25mm;font-family:'Bodoni 72';-inkscape-font-specification:'Bodoni 72,';font-variant-ligatures:normal;font-variant-caps:normal;font-variant-numeric:normal;font-variant-east-asian:normal;text-align:right;letter-spacing:2px;writing-mode:lr-tb;direction:rtl;text-anchor:start;fill:#d4d7d9;fill-opacity:1;fill-rule:nonzero;stroke:none;stroke-width:0;stroke-dasharray:none;stroke-opacity:1"
       x="596.17926"
       y="377.08911"
       id="text48"><tspan
         sodipodi:role="line"
         id="tspan52"
         x="596.17926"
         y="378">it all</tspan><tspan
         sodipodi:role="line"
         id="tspan53"
         x="596.17926"
         y="472">starts</tspan><tspan
         sodipodi:role="line"
         id="tspan54"
         x="596.17926"
         y="567">with</tspan><tspan
         sodipodi:role="line"
         id="tspan55"
         x="596.17926"
         y="661">why</tspan></text>
  </g>
</svg>
